<svg xmlns="http://www.w3.org/2000/svg" width="900" height="480" viewBox="0 0 900 480">
<rect width="100%" height="100%" fill="white"/>
<text x="450.0" y="28" text-anchor="middle" font-family="Arial" font-size="20" font-weight="700">C2 Runaway Window: T7 vs T9 and T10</text>
<line x1="86" y1="402.0" x2="868" y2="402.0" stroke="#e6e6e6"/>
<text x="76" y="406.0" text-anchor="end" font-family="Arial" font-size="12">0</text>
<line x1="86" y1="332.4" x2="868" y2="332.4" stroke="#e6e6e6"/>
<text x="76" y="336.4" text-anchor="end" font-family="Arial" font-size="12">160</text>
<line x1="86" y1="262.8" x2="868" y2="262.8" stroke="#e6e6e6"/>
<text x="76" y="266.8" text-anchor="end" font-family="Arial" font-size="12">320</text>
<line x1="86" y1="193.2" x2="868" y2="193.2" stroke="#e6e6e6"/>
<text x="76" y="197.2" text-anchor="end" font-family="Arial" font-size="12">480</text>
<line x1="86" y1="123.6" x2="868" y2="123.6" stroke="#e6e6e6"/>
<text x="76" y="127.6" text-anchor="end" font-family="Arial" font-size="12">640</text>
<line x1="86" y1="54.0" x2="868" y2="54.0" stroke="#e6e6e6"/>
<text x="76" y="58.0" text-anchor="end" font-family="Arial" font-size="12">800</text>
<text x="86.0" y="428" text-anchor="middle" font-family="Arial" font-size="12">2296</text>
<text x="172.9" y="428" text-anchor="middle" font-family="Arial" font-size="12">2297</text>
<text x="259.8" y="428" text-anchor="middle" font-family="Arial" font-size="12">2298</text>
<text x="346.7" y="428" text-anchor="middle" font-family="Arial" font-size="12">2299</text>
<text x="433.6" y="428" text-anchor="middle" font-family="Arial" font-size="12">2300</text>
<text x="520.4" y="428" text-anchor="middle" font-family="Arial" font-size="12">2301</text>
<text x="607.3" y="428" text-anchor="middle" font-family="Arial" font-size="12">2302</text>
<text x="694.2" y="428" text-anchor="middle" font-family="Arial" font-size="12">2303</text>
<text x="781.1" y="428" text-anchor="middle" font-family="Arial" font-size="12">2304</text>
<text x="868.0" y="428" text-anchor="middle" font-family="Arial" font-size="12">2305</text>
<line x1="86" y1="54" x2="86" y2="402" stroke="#333"/>
<line x1="86" y1="402" x2="868" y2="402" stroke="#333"/>
<text x="450.0" y="464" text-anchor="middle" font-family="Arial" font-size="14">Elapsed time (s)</text>
<text transform="translate(22 240.0) rotate(-90)" text-anchor="middle" font-family="Arial" font-size="14">Temperature (degC)</text>
<polyline points="86.0,331.9 172.9,323.6 259.8,249.9 346.7,132.0 433.6,82.5 520.4,126.9 607.3,178.6 694.2,197.6 781.1,193.0 868.0,193.4" fill="none" stroke="#d62728" stroke-width="3"/>
<circle cx="86.0" cy="331.9" r="3.5" fill="#d62728"/>
<circle cx="172.9" cy="323.6" r="3.5" fill="#d62728"/>
<circle cx="259.8" cy="249.9" r="3.5" fill="#d62728"/>
<circle cx="346.7" cy="132.0" r="3.5" fill="#d62728"/>
<circle cx="433.6" cy="82.5" r="3.5" fill="#d62728"/>
<circle cx="520.4" cy="126.9" r="3.5" fill="#d62728"/>
<circle cx="607.3" cy="178.6" r="3.5" fill="#d62728"/>
<circle cx="694.2" cy="197.6" r="3.5" fill="#d62728"/>
<circle cx="781.1" cy="193.0" r="3.5" fill="#d62728"/>
<circle cx="868.0" cy="193.4" r="3.5" fill="#d62728"/>
<polyline points="86.0,284.1 172.9,284.1 259.8,284.2 346.7,284.5 433.6,284.5 520.4,284.1 607.3,283.0 694.2,281.4 781.1,279.1 868.0,277.6" fill="none" stroke="#2ca02c" stroke-width="3"/>
<circle cx="86.0" cy="284.1" r="3.5" fill="#2ca02c"/>
<circle cx="172.9" cy="284.1" r="3.5" fill="#2ca02c"/>
<circle cx="259.8" cy="284.2" r="3.5" fill="#2ca02c"/>
<circle cx="346.7" cy="284.5" r="3.5" fill="#2ca02c"/>
<circle cx="433.6" cy="284.5" r="3.5" fill="#2ca02c"/>
<circle cx="520.4" cy="284.1" r="3.5" fill="#2ca02c"/>
<circle cx="607.3" cy="283.0" r="3.5" fill="#2ca02c"/>
<circle cx="694.2" cy="281.4" r="3.5" fill="#2ca02c"/>
<circle cx="781.1" cy="279.1" r="3.5" fill="#2ca02c"/>
<circle cx="868.0" cy="277.6" r="3.5" fill="#2ca02c"/>
<polyline points="86.0,341.1 172.9,341.0 259.8,341.0 346.7,341.2 433.6,341.2 520.4,341.4 607.3,341.4 694.2,341.4 781.1,341.5 868.0,341.4" fill="none" stroke="#1f77b4" stroke-width="3"/>
<circle cx="86.0" cy="341.1" r="3.5" fill="#1f77b4"/>
<circle cx="172.9" cy="341.0" r="3.5" fill="#1f77b4"/>
<circle cx="259.8" cy="341.0" r="3.5" fill="#1f77b4"/>
<circle cx="346.7" cy="341.2" r="3.5" fill="#1f77b4"/>
<circle cx="433.6" cy="341.2" r="3.5" fill="#1f77b4"/>
<circle cx="520.4" cy="341.4" r="3.5" fill="#1f77b4"/>
<circle cx="607.3" cy="341.4" r="3.5" fill="#1f77b4"/>
<circle cx="694.2" cy="341.4" r="3.5" fill="#1f77b4"/>
<circle cx="781.1" cy="341.5" r="3.5" fill="#1f77b4"/>
<circle cx="868.0" cy="341.4" r="3.5" fill="#1f77b4"/>
<rect x="86" y="42" width="13" height="13" fill="#d62728"/>
<text x="105" y="53" font-family="Arial" font-size="13">T7 C2 vent</text>
<rect x="236" y="42" width="13" height="13" fill="#2ca02c"/>
<text x="255" y="53" font-family="Arial" font-size="13">T9 C2/C3 jacket</text>
<rect x="386" y="42" width="13" height="13" fill="#1f77b4"/>
<text x="405" y="53" font-family="Arial" font-size="13">T10 C3 side</text>
</svg>
