<svg xmlns="http://www.w3.org/2000/svg" width="900" height="480" viewBox="0 0 900 480">
<rect width="100%" height="100%" fill="white"/>
<text x="450.0" y="30" text-anchor="middle" font-family="Arial" font-size="20" font-weight="700">C2 Boundary Temperatures During T7 Runaway</text>
<line x1="86" y1="388.0" x2="866" y2="388.0" stroke="#e6e6e6"/>
<text x="76" y="392.0" text-anchor="end" font-family="Arial" font-size="12">0</text>
<line x1="86" y1="322.0" x2="866" y2="322.0" stroke="#e6e6e6"/>
<text x="76" y="326.0" text-anchor="end" font-family="Arial" font-size="12">64</text>
<line x1="86" y1="256.0" x2="866" y2="256.0" stroke="#e6e6e6"/>
<text x="76" y="260.0" text-anchor="end" font-family="Arial" font-size="12">128</text>
<line x1="86" y1="190.0" x2="866" y2="190.0" stroke="#e6e6e6"/>
<text x="76" y="194.0" text-anchor="end" font-family="Arial" font-size="12">192</text>
<line x1="86" y1="124.0" x2="866" y2="124.0" stroke="#e6e6e6"/>
<text x="76" y="128.0" text-anchor="end" font-family="Arial" font-size="12">256</text>
<line x1="86" y1="58.0" x2="866" y2="58.0" stroke="#e6e6e6"/>
<text x="76" y="62.0" text-anchor="end" font-family="Arial" font-size="12">320</text>
<line x1="86" y1="58" x2="86" y2="388" stroke="#333"/>
<line x1="86" y1="388" x2="866" y2="388" stroke="#333"/>
<text transform="translate(22 240.0) rotate(-90)" text-anchor="middle" font-family="Arial" font-size="14">Temperature (degC)</text>
<rect x="153.0" y="112.3" width="32.8" height="275.7" fill="#1f77b4"/>
<text x="169.4" y="107.3" text-anchor="middle" font-family="Arial" font-size="11">267.3</text>
<rect x="195.0" y="160.2" width="32.8" height="227.8" fill="#d62728"/>
<text x="211.4" y="155.2" text-anchor="middle" font-family="Arial" font-size="11">220.9</text>
<rect x="237.0" y="108.8" width="32.8" height="279.2" fill="#2ca02c"/>
<text x="253.4" y="103.8" text-anchor="middle" font-family="Arial" font-size="11">270.7</text>
<text x="216.0" y="422" text-anchor="middle" font-family="Arial" font-size="12">2298 s</text>
<rect x="413.0" y="113.8" width="32.8" height="274.2" fill="#1f77b4"/>
<text x="429.4" y="108.8" text-anchor="middle" font-family="Arial" font-size="11">265.9</text>
<rect x="455.0" y="160.0" width="32.8" height="228.0" fill="#d62728"/>
<text x="471.4" y="155.0" text-anchor="middle" font-family="Arial" font-size="11">221.1</text>
<rect x="497.0" y="109.4" width="32.8" height="278.6" fill="#2ca02c"/>
<text x="513.4" y="104.4" text-anchor="middle" font-family="Arial" font-size="11">270.2</text>
<text x="476.0" y="422" text-anchor="middle" font-family="Arial" font-size="12">2299 s</text>
<rect x="673.0" y="113.9" width="32.8" height="274.1" fill="#1f77b4"/>
<text x="689.4" y="108.9" text-anchor="middle" font-family="Arial" font-size="11">265.8</text>
<rect x="715.0" y="159.8" width="32.8" height="228.2" fill="#d62728"/>
<text x="731.4" y="154.8" text-anchor="middle" font-family="Arial" font-size="11">221.3</text>
<rect x="757.0" y="109.5" width="32.8" height="278.5" fill="#2ca02c"/>
<text x="773.4" y="104.5" text-anchor="middle" font-family="Arial" font-size="11">270.1</text>
<text x="736.0" y="422" text-anchor="middle" font-family="Arial" font-size="12">2300 s</text>
<rect x="86" y="450" width="13" height="13" fill="#1f77b4"/>
<text x="104" y="461" font-family="Arial" font-size="13">T6</text>
<rect x="216" y="450" width="13" height="13" fill="#d62728"/>
<text x="234" y="461" font-family="Arial" font-size="13">T8</text>
<rect x="346" y="450" width="13" height="13" fill="#2ca02c"/>
<text x="364" y="461" font-family="Arial" font-size="13">T9</text>
</svg>
