<svg xmlns="http://www.w3.org/2000/svg" width="900" height="480" viewBox="0 0 900 480">
<rect width="100%" height="100%" fill="white"/>
<text x="450.0" y="30" text-anchor="middle" font-family="Arial" font-size="20" font-weight="700">Cell-to-Cell Propagation Lag</text>
<line x1="86" y1="385.0" x2="866" y2="385.0" stroke="#e6e6e6"/>
<text x="76" y="389.0" text-anchor="end" font-family="Arial" font-size="12">0</text>
<line x1="86" y1="319.6" x2="866" y2="319.6" stroke="#e6e6e6"/>
<text x="76" y="323.6" text-anchor="end" font-family="Arial" font-size="12">160</text>
<line x1="86" y1="254.2" x2="866" y2="254.2" stroke="#e6e6e6"/>
<text x="76" y="258.2" text-anchor="end" font-family="Arial" font-size="12">320</text>
<line x1="86" y1="188.8" x2="866" y2="188.8" stroke="#e6e6e6"/>
<text x="76" y="192.8" text-anchor="end" font-family="Arial" font-size="12">480</text>
<line x1="86" y1="123.4" x2="866" y2="123.4" stroke="#e6e6e6"/>
<text x="76" y="127.4" text-anchor="end" font-family="Arial" font-size="12">640</text>
<line x1="86" y1="58.0" x2="866" y2="58.0" stroke="#e6e6e6"/>
<text x="76" y="62.0" text-anchor="end" font-family="Arial" font-size="12">800</text>
<line x1="86" y1="58" x2="86" y2="385" stroke="#333"/>
<line x1="86" y1="385" x2="866" y2="385" stroke="#333"/>
<text transform="translate(22 240.0) rotate(-90)" text-anchor="middle" font-family="Arial" font-size="14">Lag (s)</text>
<rect x="102.0" y="125.2" width="169.5" height="259.8" fill="#1f77b4"/>
<text x="186.8" y="120.2" text-anchor="middle" font-family="Arial" font-size="11">635</text>
<text transform="translate(186.8 420) rotate(-28)" text-anchor="end" font-family="Arial" font-size="12">C2 to C1</text>
<rect x="288.8" y="73.1" width="169.5" height="311.9" fill="#ff7f0e"/>
<text x="373.5" y="68.1" text-anchor="middle" font-family="Arial" font-size="11">763</text>
<text transform="translate(373.5 420) rotate(-28)" text-anchor="end" font-family="Arial" font-size="12">C2 to C3</text>
<rect x="475.5" y="80.5" width="169.5" height="304.5" fill="#d62728"/>
<text x="560.2" y="75.5" text-anchor="middle" font-family="Arial" font-size="11">745</text>
<text transform="translate(560.2 420) rotate(-28)" text-anchor="end" font-family="Arial" font-size="12">C3 to C4</text>
<rect x="662.2" y="123.4" width="169.5" height="261.6" fill="#2ca02c"/>
<text x="747.0" y="118.4" text-anchor="middle" font-family="Arial" font-size="11">640</text>
<text transform="translate(747.0 420) rotate(-28)" text-anchor="end" font-family="Arial" font-size="12">C4 to C5</text>
</svg>
