<svg xmlns="http://www.w3.org/2000/svg" width="900" height="480" viewBox="0 0 900 480">
<rect width="100%" height="100%" fill="white"/>
<text x="450.0" y="28" text-anchor="middle" font-family="Arial" font-size="20" font-weight="700">C1 vs C3 Cell-Facing Threshold Times</text>
<line x1="86" y1="402.0" x2="868" y2="402.0" stroke="#e6e6e6"/>
<text x="76" y="406.0" text-anchor="end" font-family="Arial" font-size="12">0</text>
<line x1="86" y1="332.4" x2="868" y2="332.4" stroke="#e6e6e6"/>
<text x="76" y="336.4" text-anchor="end" font-family="Arial" font-size="12">620</text>
<line x1="86" y1="262.8" x2="868" y2="262.8" stroke="#e6e6e6"/>
<text x="76" y="266.8" text-anchor="end" font-family="Arial" font-size="12">1240</text>
<line x1="86" y1="193.2" x2="868" y2="193.2" stroke="#e6e6e6"/>
<text x="76" y="197.2" text-anchor="end" font-family="Arial" font-size="12">1860</text>
<line x1="86" y1="123.6" x2="868" y2="123.6" stroke="#e6e6e6"/>
<text x="76" y="127.6" text-anchor="end" font-family="Arial" font-size="12">2480</text>
<line x1="86" y1="54.0" x2="868" y2="54.0" stroke="#e6e6e6"/>
<text x="76" y="58.0" text-anchor="end" font-family="Arial" font-size="12">3100</text>
<text x="86.0" y="428" text-anchor="middle" font-family="Arial" font-size="12">100</text>
<text x="281.5" y="428" text-anchor="middle" font-family="Arial" font-size="12">150</text>
<text x="477.0" y="428" text-anchor="middle" font-family="Arial" font-size="12">200</text>
<text x="868.0" y="428" text-anchor="middle" font-family="Arial" font-size="12">300</text>
<line x1="86" y1="54" x2="86" y2="402" stroke="#333"/>
<line x1="86" y1="402" x2="868" y2="402" stroke="#333"/>
<text x="450.0" y="464" text-anchor="middle" font-family="Arial" font-size="14">Temperature threshold (degC)</text>
<text transform="translate(22 240.0) rotate(-90)" text-anchor="middle" font-family="Arial" font-size="14">Elapsed time (s)</text>
<polyline points="86.0,194.0 281.5,139.8 477.0,131.9 868.0,85.3" fill="none" stroke="#ff7f0e" stroke-width="3"/>
<circle cx="86.0" cy="194.0" r="3.5" fill="#ff7f0e"/>
<circle cx="281.5" cy="139.8" r="3.5" fill="#ff7f0e"/>
<circle cx="477.0" cy="131.9" r="3.5" fill="#ff7f0e"/>
<circle cx="868.0" cy="85.3" r="3.5" fill="#ff7f0e"/>
<polyline points="86.0,189.4 281.5,139.3 477.0,130.8 868.0,58.9" fill="none" stroke="#1f77b4" stroke-width="3"/>
<circle cx="86.0" cy="189.4" r="3.5" fill="#1f77b4"/>
<circle cx="281.5" cy="139.3" r="3.5" fill="#1f77b4"/>
<circle cx="477.0" cy="130.8" r="3.5" fill="#1f77b4"/>
<circle cx="868.0" cy="58.9" r="3.5" fill="#1f77b4"/>
<rect x="86" y="42" width="13" height="13" fill="#ff7f0e"/>
<text x="105" y="53" font-family="Arial" font-size="13">C1 side T4</text>
<rect x="236" y="42" width="13" height="13" fill="#1f77b4"/>
<text x="255" y="53" font-family="Arial" font-size="13">C3 side T10</text>
</svg>
