<svg xmlns="http://www.w3.org/2000/svg" width="900" height="480" viewBox="0 0 900 480">
<rect width="100%" height="100%" fill="white"/>
<text x="450.0" y="30" text-anchor="middle" font-family="Arial" font-size="20" font-weight="700">Representative Peak Temperatures</text>
<line x1="86" y1="385.0" x2="866" y2="385.0" stroke="#e6e6e6"/>
<text x="76" y="389.0" text-anchor="end" font-family="Arial" font-size="12">0</text>
<line x1="86" y1="319.6" x2="866" y2="319.6" stroke="#e6e6e6"/>
<text x="76" y="323.6" text-anchor="end" font-family="Arial" font-size="12">170</text>
<line x1="86" y1="254.2" x2="866" y2="254.2" stroke="#e6e6e6"/>
<text x="76" y="258.2" text-anchor="end" font-family="Arial" font-size="12">340</text>
<line x1="86" y1="188.8" x2="866" y2="188.8" stroke="#e6e6e6"/>
<text x="76" y="192.8" text-anchor="end" font-family="Arial" font-size="12">510</text>
<line x1="86" y1="123.4" x2="866" y2="123.4" stroke="#e6e6e6"/>
<text x="76" y="127.4" text-anchor="end" font-family="Arial" font-size="12">680</text>
<line x1="86" y1="58.0" x2="866" y2="58.0" stroke="#e6e6e6"/>
<text x="76" y="62.0" text-anchor="end" font-family="Arial" font-size="12">850</text>
<line x1="86" y1="58" x2="86" y2="385" stroke="#333"/>
<line x1="86" y1="385" x2="866" y2="385" stroke="#333"/>
<text transform="translate(22 240.0) rotate(-90)" text-anchor="middle" font-family="Arial" font-size="14">Temperature (degC)</text>
<rect x="102.0" y="102.4" width="79.5" height="282.6" fill="#1f77b4"/>
<text x="141.8" y="97.4" text-anchor="middle" font-family="Arial" font-size="11">734</text>
<text transform="translate(141.8 420) rotate(-28)" text-anchor="end" font-family="Arial" font-size="12">T7 C2 vent</text>
<rect x="197.5" y="95.1" width="79.5" height="289.9" fill="#d62728"/>
<text x="237.2" y="90.1" text-anchor="middle" font-family="Arial" font-size="11">754</text>
<text transform="translate(237.2 420) rotate(-28)" text-anchor="end" font-family="Arial" font-size="12">T4 C1</text>
<rect x="293.0" y="92.0" width="79.5" height="293.0" fill="#2ca02c"/>
<text x="332.8" y="87.0" text-anchor="middle" font-family="Arial" font-size="11">762</text>
<text transform="translate(332.8 420) rotate(-28)" text-anchor="end" font-family="Arial" font-size="12">T10 C3</text>
<rect x="388.5" y="97.0" width="79.5" height="288.0" fill="#9467bd"/>
<text x="428.2" y="92.0" text-anchor="middle" font-family="Arial" font-size="11">749</text>
<text transform="translate(428.2 420) rotate(-28)" text-anchor="end" font-family="Arial" font-size="12">T14 C4</text>
<rect x="484.0" y="103.0" width="79.5" height="282.0" fill="#ff7f0e"/>
<text x="523.8" y="98.0" text-anchor="middle" font-family="Arial" font-size="11">733</text>
<text transform="translate(523.8 420) rotate(-28)" text-anchor="end" font-family="Arial" font-size="12">T18 C5</text>
<rect x="579.5" y="126.4" width="79.5" height="258.6" fill="#17becf"/>
<text x="619.2" y="121.4" text-anchor="middle" font-family="Arial" font-size="11">672</text>
<text transform="translate(619.2 420) rotate(-28)" text-anchor="end" font-family="Arial" font-size="12">T9 C2/C3</text>
<rect x="675.0" y="113.1" width="79.5" height="271.9" fill="#8c564b"/>
<text x="714.8" y="108.1" text-anchor="middle" font-family="Arial" font-size="11">707</text>
<text transform="translate(714.8 420) rotate(-28)" text-anchor="end" font-family="Arial" font-size="12">T13 C3/C4</text>
<rect x="770.5" y="115.7" width="79.5" height="269.3" fill="#7f7f7f"/>
<text x="810.2" y="110.7" text-anchor="middle" font-family="Arial" font-size="11">700</text>
<text transform="translate(810.2 420) rotate(-28)" text-anchor="end" font-family="Arial" font-size="12">T17 C4/C5</text>
</svg>
